<svg width="201" height="41" viewBox="0 0 201 41" fill="none" xmlns="http://www.w3.org/2000/svg">
<path d="M112.881 13.4926L103.429 34.0041L93.9738 13.4926H89.2112L101.817 40.4256H105.09L117.694 13.4926H112.881Z" fill="#002E4F"/>
<path d="M123.787 6.17414C123.376 6.18408 122.966 6.11158 122.583 5.96093C122.2 5.81028 121.851 5.58452 121.556 5.29691C121.262 5.00931 121.027 4.66569 120.868 4.28626C120.708 3.90683 120.625 3.49925 120.625 3.08752C120.625 2.67579 120.708 2.26821 120.868 1.88878C121.027 1.50934 121.262 1.16573 121.556 0.878123C121.851 0.590521 122.2 0.364761 122.583 0.214111C122.966 0.0634606 123.376 -0.00903899 123.787 0.00089957C124.593 0.0203541 125.359 0.354103 125.922 0.930836C126.485 1.50757 126.8 2.28156 126.8 3.08752C126.8 3.89347 126.485 4.6675 125.922 5.24423C125.359 5.82096 124.593 6.15468 123.787 6.17414ZM121.597 13.4899H125.872V40.4238H121.597V13.4899Z" fill="#002E4F"/>
<path d="M142.687 40.951C141.363 40.9793 140.047 40.7356 138.821 40.235C137.595 39.7344 136.484 38.9876 135.558 38.0407C133.65 35.9149 132.643 33.1305 132.75 30.276V13.4935H137.026V29.7497C137.026 34.049 139.492 36.9386 143.161 36.9386C147.642 36.9386 150.77 32.8121 150.77 26.9051V13.4935H155.047V40.4274H150.77V36.7497C149.88 38.0688 148.675 39.1446 147.263 39.8791C145.851 40.6136 144.279 40.9836 142.688 40.9555" fill="#002E4F"/>
<path d="M196.491 40.4229V24.164C196.491 19.7297 194.464 16.9769 191.198 16.9769C190.148 16.9626 189.109 17.2002 188.169 17.6698C187.229 18.1393 186.415 18.8272 185.796 19.6758C184.318 21.8292 183.581 24.4054 183.696 27.0149V40.4265H179.419V24.164C179.419 19.7297 177.412 16.9769 174.182 16.9769C169.661 16.9769 166.625 21.0081 166.625 27.0113V40.4229H162.35V13.4899H166.625V17.1109C167.49 15.8083 168.67 14.7451 170.056 14.0202C171.442 13.2952 172.988 12.9318 174.552 12.9637C176.306 12.91 178.034 13.401 179.499 14.3691C180.963 15.3372 182.091 16.735 182.729 18.3704C183.5 16.716 184.737 15.3229 186.289 14.3624C187.841 13.4018 189.64 12.9156 191.465 12.9637C192.749 12.924 194.026 13.1711 195.202 13.6869C196.379 14.2028 197.426 14.9745 198.267 15.9459C199.995 18.1279 200.883 20.8575 200.768 23.6386V40.4238L196.491 40.4229Z" fill="#002E4F"/>
<path d="M13.7856 16.9759C15.8011 16.9186 17.7671 17.6058 19.3078 18.9064C20.8486 20.2071 21.8561 22.0298 22.1378 24.0263H4.76777C5.23047 21.9931 6.37991 20.1816 8.02239 18.897C9.66487 17.6124 11.7 16.9333 13.7847 16.9742L13.7856 16.9759ZM21.4711 33.3626C19.6431 35.8213 17.2348 36.9332 13.8378 36.9332C12.6192 36.9741 11.4047 36.7707 10.2658 36.3351C9.12699 35.8994 8.08684 35.2403 7.20661 34.3965C6.32637 33.5527 5.62387 32.5414 5.14044 31.422C4.65702 30.3026 4.40245 29.0978 4.39173 27.8785H26.6206V26.5839C26.7466 22.8807 25.4081 19.2771 22.8952 16.554C21.7201 15.386 20.3223 14.466 18.7848 13.8487C17.2473 13.2313 15.6014 12.9291 13.9449 12.96C12.0837 12.9302 10.2357 13.2755 8.51094 13.9754C6.78618 14.6752 5.22003 15.7153 3.90592 17.0335C1.35388 19.7006 -0.0479953 23.2636 0.00245423 26.9546C-0.0654324 30.6125 1.27728 34.1561 3.7521 36.8505C5.05734 38.1955 6.62811 39.2544 8.36458 39.9597C10.101 40.665 11.9652 41.0013 13.8387 40.9474C15.7025 41.0163 17.56 40.6935 19.2912 39.9997C21.0225 39.3059 22.5889 38.2567 23.8893 36.9198C23.1238 35.7664 22.0775 34.2101 21.4711 33.3608" fill="#002E4F"/>
<path d="M88.9296 27.229C88.9296 27.1705 88.9296 27.113 88.9296 27.0545V26.8746C88.9296 26.8026 88.9296 26.7306 88.9251 26.6596C88.9251 26.6146 88.9251 26.5696 88.9251 26.5264C88.9206 26.4184 88.9152 26.3114 88.9098 26.2016V26.1881C88.7017 22.7234 87.2159 19.4589 84.7398 17.0265C82.2637 14.5941 78.9733 13.1666 75.5054 13.0203H75.4577C73.5225 12.9511 71.5939 13.2831 69.7932 13.9953C67.9924 14.7074 66.3585 15.7845 64.9941 17.1586C62.3337 19.9637 59.8843 22.9617 57.6658 26.1279L57.673 26.1324C55.7554 28.8614 53.6417 31.4471 51.3486 33.8691L51.3234 33.8953C50.3589 34.8698 49.2028 35.6338 47.9281 36.139C46.6535 36.6443 45.2879 36.8798 43.9177 36.8307H43.8844C41.3079 36.7133 38.8778 35.5996 37.1069 33.7246C35.336 31.8496 34.3627 29.3599 34.3924 26.781C34.4243 24.786 35.0585 22.8473 36.2118 21.2192C37.3651 19.591 38.9837 18.3495 40.8551 17.6576C42.7265 16.9656 44.7633 16.8555 46.6984 17.3417C48.6335 17.8278 50.3764 18.8876 51.6985 20.3819L54.7815 17.6894C53.5294 16.2735 52.0049 15.1243 50.299 14.3104C48.5931 13.4965 46.7407 13.0345 44.8524 12.9519C42.9871 12.8762 41.1255 13.1744 39.3773 13.829C37.629 14.4835 36.0293 15.4812 34.6724 16.7632C33.3154 18.0453 32.2287 19.5858 31.4761 21.2942C30.7235 23.0026 30.3203 24.8443 30.2901 26.7108C30.2469 30.36 31.6232 33.8832 34.1286 36.5368C36.6339 39.1904 40.0723 40.7667 43.7179 40.933H43.7656C45.7007 41.0023 47.6292 40.6705 49.4298 39.9583C51.2304 39.2461 52.8642 38.169 54.2283 36.7947C57.0267 33.8131 59.5998 30.6277 61.9264 27.265C63.7372 24.7331 65.7243 22.332 67.8729 20.0797L67.899 20.0545C68.8635 19.0798 70.0195 18.3156 71.2942 17.8102C72.5688 17.3048 73.9344 17.0692 75.3048 17.1181C75.3161 17.1192 75.3276 17.1192 75.3389 17.1181C77.7857 17.2303 80.1052 18.241 81.8534 19.9566C83.6016 21.6723 84.6556 23.9724 84.8138 26.4166C84.8138 26.4436 84.8138 26.4697 84.8138 26.4967C84.8138 26.5498 84.821 26.6047 84.8219 26.6587C84.8228 26.7126 84.8219 26.7486 84.8219 26.8008C84.8219 26.835 84.8219 26.871 84.8219 26.906C84.8219 26.9555 84.8219 27.0077 84.8219 27.0581V27.1588L84.8165 27.2902C84.8165 27.3316 84.8165 27.372 84.8165 27.4134C84.8165 27.4791 84.8111 27.5421 84.8057 27.6068C84.8057 27.6257 84.8057 27.6446 84.8057 27.6617C84.6318 30.2352 83.4613 32.6394 81.5428 34.3634C79.6244 36.0875 77.1093 36.9955 74.532 36.8946C74.4348 36.8892 74.3385 36.8847 74.2432 36.8775L74.1784 36.8721C74.0929 36.8667 74.0093 36.8586 73.9238 36.8496L73.8105 36.8379L73.6737 36.8208C71.8686 36.5859 70.1629 35.8588 68.7434 34.7192C67.3239 33.5796 66.2453 32.0714 65.6257 30.3597L61.7798 31.791C62.0192 32.4428 62.3057 33.0763 62.6371 33.6865H62.6317C63.7361 35.7072 65.3196 37.4259 67.2433 38.6917C69.167 39.9575 71.372 40.7318 73.6647 40.9465C73.6779 40.9474 73.6911 40.9474 73.7043 40.9465L73.8842 40.9618L73.9985 40.969L74.1217 40.9771L74.3691 40.9888C78.0745 41.1372 81.6873 39.8092 84.4145 37.2964C87.1417 34.7836 88.7604 31.2913 88.9152 27.5862C88.9152 27.5862 88.9152 27.579 88.9152 27.5763C88.9152 27.5268 88.9152 27.4755 88.9152 27.4242C88.9152 27.3729 88.9206 27.3028 88.9206 27.2443V27.2326" fill="#002E4F"/>
</svg>
